<svg xmlns="http://www.w3.org/2000/svg" viewBox="0 0 600 800" width="600" height="800">
  <defs>
    <linearGradient id="bg-grad" x1="0" x2="0" y1="0" y2="1">
      <stop offset="0%"   stop-color="#0e0a08"/>
      <stop offset="100%" stop-color="#070506"/>
    </linearGradient>
    <linearGradient id="gold" x1="0" x2="0" y1="0" y2="1">
      <stop offset="0%"   stop-color="#c09030"/>
      <stop offset="50%"  stop-color="#806024"/>
      <stop offset="100%" stop-color="#4a3410"/>
    </linearGradient>
  </defs>
  <rect width="600" height="800" fill="url(#bg-grad)"/>
  <rect x="18" y="18" width="564" height="764" fill="none" stroke="#4a3410" stroke-width="2"/>
  <rect x="24" y="24" width="552" height="752" fill="none" stroke="#806024" stroke-width="1"/>
  <g fill="none" stroke="#806024" stroke-width="1.5">
    <polyline points="18,50 18,18 50,18"/>
    <polyline points="24,54 24,24 54,24"/>
    <polyline points="582,50 582,18 550,18"/>
    <polyline points="576,54 576,24 546,24"/>
    <polyline points="18,750 18,782 50,782"/>
    <polyline points="24,746 24,776 54,776"/>
    <polyline points="582,750 582,782 550,782"/>
    <polyline points="576,746 576,776 546,776"/>
  </g>
  <line x1="80" y1="380" x2="520" y2="380" stroke="#4a3410" stroke-width="1"/>
  <line x1="80" y1="384" x2="520" y2="384" stroke="#2e1c06" stroke-width="0.5"/>
  <g fill="#2a1e10" opacity="0.55" transform="translate(276,280)">
    <ellipse cx="24" cy="60" rx="18" ry="22"/>
    <ellipse cx="6"  cy="34" rx="10" ry="12"/>
    <ellipse cx="24" cy="26" rx="10" ry="12"/>
    <ellipse cx="42" cy="34" rx="10" ry="12"/>
  </g>
  <text x="300" y="460" text-anchor="middle"
        font-family="serif" font-size="18" letter-spacing="5"
        fill="#4a3410" opacity="0.9">PORTRAIT FORTHCOMING</text>
  <text x="300" y="530" text-anchor="middle"
        font-family="serif" font-size="42" letter-spacing="8"
        fill="url(#gold)">POLLY</text>
  <text x="300" y="574" text-anchor="middle"
        font-family="serif" font-size="16" letter-spacing="4"
        fill="#5e4214" opacity="0.8">2010 — 2023</text>
  <line x1="180" y1="590" x2="420" y2="590" stroke="#4a3410" stroke-width="1"/>
  <circle cx="180" cy="590" r="3" fill="#4a3410"/>
  <circle cx="420" cy="590" r="3" fill="#4a3410"/>
  <circle cx="300" cy="590" r="2" fill="#806024"/>
</svg>
